<mxfile modified="2022-07-27T07:08:49.888Z" host="app.diagrams.net" agent="5.0 (Windows NT 10.0; Win64; x64) AppleWebKit/537.36 (KHTML, like Gecko) Chrome/100.0.4896.60 Safari/537.36" etag="-vxmMSviS7Qx3xNR8Wh_" version="20.0.3" type="github">
  <diagram id="Ht1M8jgEwFfnCIfOTk4-" name="Page-1">
    <mxGraphModel dx="1422" dy="1589" grid="1" gridSize="10" guides="1" tooltips="1" connect="1" arrows="1" fold="1" page="1" pageScale="1" pageWidth="1169" pageHeight="827" math="0" shadow="0">
      <root>
        <object label="" id="0">
          <mxCell />
        </object>
        <mxCell id="1" parent="0" />
        <mxCell id="qKwbPQELBUGEyL_gi1zJ-6" value="" style="outlineConnect=0;dashed=0;verticalLabelPosition=bottom;verticalAlign=top;align=center;shape=mxgraph.aws3.lambda_function;fillColor=#F58534;gradientColor=none;strokeColor=default;overflow=visible;html=1;" vertex="1" parent="1">
          <mxGeometry x="440" y="-630" width="69" height="72" as="geometry" />
        </mxCell>
        <mxCell id="qKwbPQELBUGEyL_gi1zJ-9" value="&lt;b&gt;Lambda&lt;/b&gt;" style="text;html=1;resizable=0;autosize=1;align=center;verticalAlign=middle;points=[];fillColor=none;strokeColor=none;rounded=0;" vertex="1" parent="1">
          <mxGeometry x="440" y="-660" width="70" height="30" as="geometry" />
        </mxCell>
        <mxCell id="qKwbPQELBUGEyL_gi1zJ-10" value="" style="sketch=0;points=[[0,0,0],[0.25,0,0],[0.5,0,0],[0.75,0,0],[1,0,0],[0,1,0],[0.25,1,0],[0.5,1,0],[0.75,1,0],[1,1,0],[0,0.25,0],[0,0.5,0],[0,0.75,0],[1,0.25,0],[1,0.5,0],[1,0.75,0]];outlineConnect=0;fontColor=#232F3E;gradientColor=#FF4F8B;gradientDirection=north;fillColor=#BC1356;strokeColor=#ffffff;dashed=0;verticalLabelPosition=bottom;verticalAlign=top;align=center;html=1;fontSize=12;fontStyle=0;aspect=fixed;shape=mxgraph.aws4.resourceIcon;resIcon=mxgraph.aws4.sqs;" vertex="1" parent="1">
          <mxGeometry x="650" y="-636" width="78" height="78" as="geometry" />
        </mxCell>
        <mxCell id="qKwbPQELBUGEyL_gi1zJ-12" value="" style="edgeStyle=orthogonalEdgeStyle;html=1;endArrow=block;elbow=vertical;startArrow=none;endFill=1;strokeColor=#545B64;rounded=0;" edge="1" parent="1">
          <mxGeometry width="100" relative="1" as="geometry">
            <mxPoint x="535" y="-597.5" as="sourcePoint" />
            <mxPoint x="635" y="-597.5" as="targetPoint" />
          </mxGeometry>
        </mxCell>
        <mxCell id="qKwbPQELBUGEyL_gi1zJ-13" value="&lt;b&gt;SQS&lt;/b&gt;" style="text;html=1;resizable=0;autosize=1;align=center;verticalAlign=middle;points=[];fillColor=none;strokeColor=none;rounded=0;" vertex="1" parent="1">
          <mxGeometry x="664" y="-670" width="50" height="30" as="geometry" />
        </mxCell>
        <mxCell id="qKwbPQELBUGEyL_gi1zJ-14" value="" style="outlineConnect=0;dashed=0;verticalLabelPosition=bottom;verticalAlign=top;align=center;shape=mxgraph.aws3.lambda_function;fillColor=#F58534;gradientColor=none;strokeColor=default;overflow=visible;html=1;" vertex="1" parent="1">
          <mxGeometry x="840" y="-630" width="69" height="72" as="geometry" />
        </mxCell>
        <mxCell id="qKwbPQELBUGEyL_gi1zJ-15" value="&lt;b&gt;Lambda&lt;/b&gt;" style="text;html=1;resizable=0;autosize=1;align=center;verticalAlign=middle;points=[];fillColor=none;strokeColor=none;rounded=0;" vertex="1" parent="1">
          <mxGeometry x="840" y="-660" width="70" height="30" as="geometry" />
        </mxCell>
        <mxCell id="qKwbPQELBUGEyL_gi1zJ-16" value="" style="edgeStyle=orthogonalEdgeStyle;html=1;endArrow=block;elbow=vertical;startArrow=none;endFill=1;strokeColor=#545B64;rounded=0;" edge="1" parent="1">
          <mxGeometry width="100" relative="1" as="geometry">
            <mxPoint x="730" y="-597.5" as="sourcePoint" />
            <mxPoint x="830" y="-597.5" as="targetPoint" />
          </mxGeometry>
        </mxCell>
      </root>
    </mxGraphModel>
  </diagram>
</mxfile>
